<svg id="visual" viewBox="0 0 900 600" width="900" height="600" xmlns="http://www.w3.org/2000/svg" xmlns:xlink="http://www.w3.org/1999/xlink" version="1.1"><rect x="0" y="0" width="900" height="600" fill="#ffffff"></rect><defs><linearGradient id="grad1_0" x1="33.3%" y1="0%" x2="100%" y2="100%"><stop offset="20%" stop-color="#ffffff" stop-opacity="1"></stop><stop offset="80%" stop-color="#ffffff" stop-opacity="1"></stop></linearGradient></defs><defs><linearGradient id="grad2_0" x1="0%" y1="0%" x2="66.7%" y2="100%"><stop offset="20%" stop-color="#ffffff" stop-opacity="1"></stop><stop offset="80%" stop-color="#ffffff" stop-opacity="1"></stop></linearGradient></defs><g transform="translate(900, 0)"><path d="M0 486.7C-42.5 459.5 -85.1 432.2 -137.5 423.2C-190 414.3 -252.3 423.7 -286.1 393.8C-319.9 363.9 -325.2 294.6 -337.4 245.1C-349.5 195.6 -368.6 165.8 -394.7 128.2C-420.7 90.7 -453.7 45.3 -486.7 0L0 0Z" fill="#f3ca4c"></path></g><g transform="translate(0, 600)"><path d="M0 -486.7C53.4 -485.8 106.7 -484.9 150.4 -462.9C194.1 -440.9 228 -397.8 264.5 -364.1C301 -330.3 339.9 -305.8 374.6 -272.1C409.2 -238.5 439.5 -195.5 457.5 -148.6C475.4 -101.7 481.1 -50.9 486.7 0L0 0Z" fill="#f3ca4c"></path></g></svg>